<svg version="1.1" xmlns="http://www.w3.org/2000/svg" width="643"
     height="542">
    <defs/>
    <g transform="translate(77.37508934687769,-12.127837180615806) scale(1,1)">
        <path fill="none" stroke="rgb(102,102,102)"  
              d=" M 455.00633066378015 49.12783718061581 L 161.23854428064823 218.59465450793394" stroke-opacity="1"
              stroke-linejoin="round" stroke-miterlimit="10" stroke-width="2"/>
        <path fill="rgb(102,102,102)" stroke="none"  
              d=" M 163.1360519097538 212.4781224187934 L 157.773727413151 220.593415142604 L 167.48335629016117 220.01409910559988 Z"
              fill-opacity="1"/>
        <path fill="none" stroke="rgb(102,102,102)"  
              d=" M 114.85920286921241 255.12717732930426 L 27.909109379399922 366.9029433415119" stroke-opacity="1"
              stroke-linejoin="round" stroke-miterlimit="10" stroke-width="2"/>
        <path fill="rgb(102,102,102)" stroke="none"  
              d=" M 27.361424221000952 360.5223053665701 L 25.45311133524055 370.0601689601659 L 34.228389941573454 365.86410111261677 Z"
              fill-opacity="1"/>
        <path fill="none" stroke="rgb(102,102,102)"  
              d=" M 190.93144908476046 248.90053291421214 L 426.4886842114199 292.43878446265467" stroke-opacity="1"
              stroke-linejoin="round" stroke-miterlimit="10" stroke-width="2"/>
        <path fill="rgb(102,102,102)" stroke="none"  
              d=" M 421.0763429376644 295.8620960079865 L 430.4220615192012 293.1657940599996 L 422.6575888118896 287.3070003635623 Z"
              fill-opacity="1"/>
        <path fill="none" stroke="rgb(102,102,102)"  
              d=" M 134.2181543733174 516.3379852894643 L 31.240512449129298 408.3974927499763" stroke-opacity="1"
              stroke-linejoin="round" stroke-miterlimit="10" stroke-width="2"/>
        <path fill="rgb(102,102,102)" stroke="none"  
              d=" M 37.6322363621493 408.7954442793469 L 28.47940174010823 405.5033145155669 L 31.337398702308857 414.80086007146775 Z"
              fill-opacity="1"/>
        <path fill="rgb(40,167,69)" stroke="none"  
              d=" M 209.65672257722565 237.39024028262463 L 209.40702660960903 238.80250400572584 L 208.6594781654318 240.2060606533488 L 207.41868612943745 241.59225683203093 L 205.69230039713307 242.9525461813737 L 203.49096471063987 244.27854206519623 L 200.82825103648344 245.56206927793647 L 197.72057588990714 246.7952144475117 L 194.1870991215964 247.97037482388916 L 190.24960579082816 249.08030515256795 L 185.932371853336 250.11816234398248 L 181.26201449197052 251.07754766342518 L 176.26732801291598 251.9525461813737 L 170.97910631921752 252.73776324099828 L 165.42995305612894 253.42835771801526 L 159.65408059879792 254.0200718678278 L 153.6870991215964 254.5092575759374 L 147.565797049554 254.8928988497828 L 141.32791424548435 255.1686304133371 L 135.0119093311811 255.33475228982093 L 128.65672257722565 255.39024028262463 L 122.30153582327021 255.33475228982093 L 115.98553090896695 255.1686304133371 L 109.74764810489732 254.8928988497828 L 103.62634603285491 254.5092575759374 L 97.65936455565338 254.0200718678278 L 91.88349209832236 253.42835771801526 L 86.33433883523381 252.7377632409983 L 81.04611714153533 251.9525461813737 L 76.05143066248078 251.07754766342518 L 71.38107330111531 250.11816234398248 L 67.06383936362315 249.08030515256795 L 63.12634603285491 247.97037482388916 L 59.59286926454419 246.7952144475117 L 56.485194117967865 245.56206927793647 L 53.82248044381143 244.27854206519626 L 51.62114475731822 242.9525461813737 L 49.894759025013855 241.59225683203093 L 48.653966989019494 240.2060606533488 L 47.90641854484228 238.80250400572584 L 47.65672257722565 237.39024028262463 L 47.90641854484228 235.97797655952343 L 48.653966989019494 234.5744199119005 L 49.89475902501384 233.18822373321834 L 51.621144757318206 231.82793438387557 L 53.822480443811415 230.50193850005303 L 56.48519411796785 229.2184112873128 L 59.59286926454418 227.98526611773755 L 63.12634603285491 226.8101057413601 L 67.06383936362315 225.70017541268132 L 71.3810733011153 224.6623182212668 L 76.05143066248074 223.70293290182408 L 81.04611714153532 222.82793438387557 L 86.33433883523381 222.04271732425096 L 91.88349209832242 221.352122847234 L 97.65936455565347 220.76040869742147 L 103.62634603285503 220.27122298931187 L 109.74764810489748 219.88758171546644 L 115.98553090896715 219.61185015191214 L 122.30153582327044 219.44572827542834 L 128.65672257722593 219.39024028262463 L 135.01190933118139 219.44572827542834 L 141.3279142454847 219.61185015191217 L 147.56579704955436 219.88758171546647 L 153.6870991215968 220.2712229893119 L 159.65408059879834 220.7604086974215 L 165.42995305612936 221.35212284723406 L 170.97910631921795 222.04271732425104 L 176.26732801291644 222.82793438387566 L 181.26201449197097 223.70293290182417 L 185.93237185333643 224.66231822126687 L 190.24960579082858 225.70017541268143 L 194.18709912159682 226.81010574136025 L 197.7205758899075 227.9852661177377 L 200.8282510364838 229.21841128731293 L 203.49096471064018 230.50193850005317 L 205.69230039713335 231.82793438387574 L 207.41868612943767 233.18822373321854 L 208.65947816543195 234.5744199119007 L 209.4070266096091 235.97797655952363 Z"
              fill-opacity="1"/>
        <text fill="rgb(255,255,255)" stroke="none" font-family="Helvetica Neue, Helvetica, sans-serif" font-size="16px"
              font-style="normal" font-weight="normal" text-decoration="normal" x="128.65672257722565"
              y="245.39024028262463" text-anchor="middle" dominant-baseline="text-after-edge" fill-opacity="1">User
            Authentication
        </text>
        <path fill="rgb(0,123,255)" stroke="none"  
              d=" M 425.7090182358443 13.12783718061581 L 425.7090182358443 49.1278371806158 L 546.7090182358443 49.127837180615806 L 546.7090182358443 13.127837180615813 Z"
              fill-opacity="1"/>
        <text fill="rgb(255,255,255)" stroke="none" font-family="Helvetica Neue, Helvetica, sans-serif" font-size="16px"
              font-style="normal" font-weight="normal" text-decoration="normal" x="486.2090182358443"
              y="39.127837180615806" text-anchor="middle" dominant-baseline="text-after-edge" fill-opacity="1">Web
            Frontend
        </text>
        <path fill="rgb(40,167,69)" stroke="none"  
              d=" M 99.62491065312231 387.8365469004081 L 99.35363602163757 389.2488106235093 L 98.54148462549443 390.6523672711323 L 97.19346364811786 392.03856344981443 L 95.31788408709582 393.39885279915717 L 92.92630951411554 394.7248486829797 L 90.03348478169869 396.00837589571995 L 86.65724511628244 397.24152106529516 L 82.8184061581177 398.4166814416726 L 78.54063562592503 399.5266117703514 L 73.8503073975385 400.56446896176595 L 68.77633890617848 401.5238542812087 L 63.35001285485995 402.39885279915717 L 57.60478434812582 403.18406985878175 L 51.576074630202434 403.87466433579874 L 45.30105270125022 404.46637848561124 L 38.81840615811769 404.9555641937209 L 32.168102672442 405.3392054675663 L 25.391143576662635 405.6149370311206 L 18.529311077172675 405.7810589076044 L 11.62491065312232 405.8365469004081 L 4.720510229071966 405.7810589076044 L -2.141322270417996 405.6149370311206 L -8.918281366197354 405.3392054675663 L -15.56858485187305 404.9555641937209 L -22.05123139500558 404.46637848561124 L -28.3262533239578 403.87466433579874 L -34.35496304188118 403.18406985878175 L -40.100191548615314 402.39885279915717 L -45.52651759993384 401.5238542812087 L -50.60048609129386 400.56446896176595 L -55.29081431968039 399.5266117703514 L -59.568584851873055 398.4166814416726 L -63.4074238100378 397.2415210652952 L -66.78366347545405 396.00837589571995 L -69.67648820787092 394.7248486829797 L -72.06806278085119 393.39885279915717 L -73.94364234187323 392.03856344981443 L -75.2916633192498 390.6523672711323 L -76.10381471539294 389.2488106235093 L -76.37508934687769 387.8365469004081 L -76.10381471539294 386.4242831773069 L -75.2916633192498 385.02072652968394 L -73.94364234187323 383.6345303510018 L -72.0680627808512 382.27424100165905 L -69.67648820787093 380.9482451178365 L -66.78366347545406 379.66471790509627 L -63.40742381003781 378.43157273552106 L -59.56858485187307 377.2564123591436 L -55.29081431968042 376.1464820304648 L -50.60048609129388 375.10862483905026 L -45.52651759993389 374.14923951960753 L -40.100191548615335 373.27424100165905 L -34.35496304188116 372.48902394203446 L -28.326253323957744 371.7984294650175 L -22.051231395005487 371.2067153152049 L -15.568584851872926 370.71752960709534 L -8.918281366197187 370.33388833324994 L -2.1413222704177866 370.05815676969564 L 4.720510229072216 369.8920348932118 L 11.624910653122612 369.8365469004081 L 18.529311077173006 369.8920348932118 L 25.391143576662998 370.05815676969564 L 32.168102672442394 370.33388833324994 L 38.818406158118115 370.71752960709534 L 45.30105270125067 371.206715315205 L 51.5760746302029 371.79842946501753 L 57.604784348126294 372.4890239420345 L 63.35001285486044 373.2742410016591 L 68.77633890617896 374.14923951960765 L 73.85030739753898 375.1086248390504 L 78.5406356259255 376.14648203046494 L 82.81840615811814 377.2564123591437 L 86.65724511628285 378.4315727355212 L 90.03348478169907 379.66471790509644 L 92.92630951411589 380.9482451178367 L 95.3178840870961 382.2742410016592 L 97.19346364811807 383.634530351002 L 98.54148462549459 385.02072652968417 L 99.35363602163766 386.42428317730713 Z"
              fill-opacity="1"/>
        <text fill="rgb(255,255,255)" stroke="none" font-family="Helvetica Neue, Helvetica, sans-serif" font-size="16px"
              font-style="normal" font-weight="normal" text-decoration="normal" x="11.624910653122315"
              y="395.8365469004081" text-anchor="middle" dominant-baseline="text-after-edge" fill-opacity="1">Session
            Management
        </text>
        <path fill="rgb(40,167,69)" stroke="none"  
              d=" M 564.093478893848 304.102499327193 L 563.863820256966 305.5147630502942 L 563.1762602681858 306.9183196979172 L 562.0350379634749 308.30451587659934 L 560.447189357837 309.6648052259421 L 558.4225040659389 310.9908011097646 L 555.9734649458815 312.27432832250486 L 553.1151711382279 313.50747349208007 L 549.8652449747816 314.6826338684575 L 546.2437233310503 315.7925641971363 L 542.2729340922458 316.83042138855086 L 537.9773584944468 317.7898067079936 L 533.3834801896373 318.6648052259421 L 528.5196219651863 319.45002228556666 L 523.4157711244443 320.14061676258365 L 518.1033946050472 320.73233091239615 L 512.6152449747816 321.2215166205058 L 506.985158501113 321.6051578943512 L 501.24784653934523 321.8808894579055 L 495.4386815255725 322.0470113343893 L 489.59347889384804 322.102499327193 L 483.7482762621236 322.0470113343893 L 477.93911124835086 321.8808894579055 L 472.2017992865831 321.6051578943512 L 466.5717128129145 321.2215166205058 L 461.08356318264885 320.73233091239615 L 455.7711866632518 320.14061676258365 L 450.66733582250987 319.45002228556666 L 445.8034775980588 318.6648052259421 L 441.20959929324937 317.7898067079936 L 436.9140236954503 316.83042138855086 L 432.94323445664577 315.7925641971363 L 429.3217128129145 314.6826338684575 L 426.0717866494682 313.5074734920801 L 423.2134928418146 312.27432832250486 L 420.76445372175715 310.9908011097646 L 418.7397684298591 309.6648052259421 L 417.1519198242211 308.30451587659934 L 416.0106975195103 306.9183196979172 L 415.32313753073004 305.5147630502942 L 415.09347889384804 304.102499327193 L 415.32313753073004 302.6902356040918 L 416.01069751951025 301.28667895646885 L 417.1519198242211 299.9004827777867 L 418.7397684298591 298.54019342844396 L 420.76445372175715 297.2141975446214 L 423.2134928418146 295.9306703318812 L 426.07178664946815 294.69752516230596 L 429.3217128129145 293.5223647859285 L 432.9432344566457 292.41243445724973 L 436.9140236954502 291.37457726583517 L 441.2095992932493 290.41519194639244 L 445.8034775980588 289.54019342844396 L 450.66733582250987 288.75497636881937 L 455.77118666325185 288.0643818918024 L 461.08356318264896 287.4726677419898 L 466.5717128129146 286.98348203388025 L 472.20179928658325 286.59984076003485 L 477.939111248351 286.32410919648055 L 483.7482762621238 286.1579873199967 L 489.59347889384827 286.102499327193 L 495.43868152557275 286.1579873199967 L 501.2478465393456 286.32410919648055 L 506.98515850111335 286.59984076003485 L 512.615244974782 286.98348203388025 L 518.1033946050476 287.4726677419899 L 523.4157711244446 288.06438189180244 L 528.5196219651866 288.7549763688194 L 533.3834801896377 289.540193428444 L 537.9773584944471 290.41519194639255 L 542.2729340922463 291.3745772658353 L 546.2437233310508 292.41243445724984 L 549.8652449747821 293.52236478592863 L 553.1151711382282 294.6975251623061 L 555.9734649458818 295.93067033188134 L 558.4225040659392 297.2141975446216 L 560.4471893578373 298.5401934284441 L 562.0350379634751 299.9004827777869 L 563.176260268186 301.2866789564691 L 563.8638202569662 302.69023560409204 Z"
              fill-opacity="1"/>
        <text fill="rgb(255,255,255)" stroke="none" font-family="Helvetica Neue, Helvetica, sans-serif" font-size="16px"
              font-style="normal" font-weight="normal" text-decoration="normal" x="489.59347889384804"
              y="312.102499327193" text-anchor="middle" dominant-baseline="text-after-edge" fill-opacity="1">Token
            Invalidation
        </text>
        <path fill="rgb(0,123,255)" stroke="none"  
              d=" M 94.89055660186278 516.3379852894643 L 94.89055660186276 552.3379852894643 L 207.89055660186273 552.3379852894643 L 207.89055660186276 516.3379852894643 Z"
              fill-opacity="1"/>
        <text fill="rgb(255,255,255)" stroke="none" font-family="Helvetica Neue, Helvetica, sans-serif" font-size="16px"
              font-style="normal" font-weight="normal" text-decoration="normal" x="151.39055660186276"
              y="542.3379852894643" text-anchor="middle" dominant-baseline="text-after-edge" fill-opacity="1">API
            Gateway
        </text>
        <g transform="scale(1,1) translate(-77.37508934687769,12.127837180615806)"/>
    </g>
</svg>